<svg xmlns="http://www.w3.org/2000/svg" viewBox="0 0 88 88"><title>Artboard-11</title><g id="Email"><path d="M87,39a1.059,1.059,0,0,0-.354-.7632L74,27.5364V2a1,1,0,0,0-1-1H24a1.1124,1.1124,0,0,0-.707.293l-9,9A1.0925,1.0925,0,0,0,14,11V27.5364l-12.646,10.7A1.0589,1.0589,0,0,0,1,39V86a1.0158,1.0158,0,0,0,1,1H86a1.0158,1.0158,0,0,0,1-1ZM73.5811,49.104c.0108-.0077.0184-.0183.0289-.0264L85,40.9429V83.8652L57.2642,60.752ZM84.373,38.933,74,46.3414V30.1559ZM72,47.77,55.677,59.4276,44.64,50.2319a.9986.9986,0,0,0-1.28,0L32.323,59.4276,16,47.77V12h8a1,1,0,0,0,1-1V3H72ZM3,40.9429C36.3227,64.7418-6.3974,34.244,30.7358,60.752L3,83.8652ZM23,4.4141V10H17.4141ZM14,46.3414,3.627,38.933,14,30.1559ZM4.7622,85,44,52.3018,83.2378,85Z" style="fill:#1d1b1e"/><path d="M28,44H60a1,1,0,0,0,1-1V15a1,1,0,0,0-1-1H28a1,1,0,0,0-1,1V43A1,1,0,0,0,28,44Zm1-2V24H39v3a1,1,0,0,0,1.6.8L44,25.25l3.4,2.55A1,1,0,0,0,49,27V24H59V42ZM59,22H49V16H59ZM47,23v2l-2.4-1.8a1,1,0,0,0-1.2,0L41,25V16h6ZM29,16H39v6H29Z" style="fill:#1d1b1e"/><path d="M42,35H32a1,1,0,0,0,0,2H42a1,1,0,0,0,0-2Z" style="fill:#1d1b1e"/><path d="M36,38H32a1,1,0,0,0,0,2h4a1,1,0,0,0,0-2Z" style="fill:#1d1b1e"/></g></svg>